# xmcd
#
# Track frame offsets:
#	150
#	15876
#	35485
#	50060
#	79897
#	102120
#	123472
#	140323
#	162050
#	184008
#	208940
#	224257
#
# Disc length: 3523 seconds
#
# Revision: 1
# Processed by: cddbd v1.5.2PL0 Copyright (c) Steve Scherf et al.
# Submitted via: audiograbber 1.83.01
#
DISCID=a00dc10c
DTITLE=Grateful Dead - 74-05-17 P.N.E. Coliseum, Vancouver, Canada
DYEAR=1900
DGENRE=
TTITLE0=Promised Land
TTITLE1=Deal
TTITLE2=The Race Is On
TTITLE3=Ramble On Rose
TTITLE4=Jack Straw
TTITLE5=Dire Wolf
TTITLE6=BIODTL
TTITLE7=Loose Lucy
TTITLE8=Big River
TTITLE9=It Must Have Been The Roses
TTITLE10=Mexicali Blues
TTITLE11=Row Jimmy
EXTD=
EXTT0=
EXTT1=
EXTT2=
EXTT3=
EXTT4=
EXTT5=
EXTT6=
EXTT7=
EXTT8=
EXTT9=
EXTT10=
EXTT11=
PLAYORDER=
